<?xml version="1.0" encoding="utf-8"?>
<!-- Generator: Adobe Illustrator 25.2.0, SVG Export Plug-In . SVG Version: 6.00 Build 0)  -->
<svg version="1.1" id="Layer_1" xmlns="http://www.w3.org/2000/svg" xmlns:xlink="http://www.w3.org/1999/xlink" x="0px" y="0px"
	 viewBox="0 0 500 500" style="enable-background:new 0 0 500 500;" xml:space="preserve">
<style type="text/css">
	.st0{fill:#FFFFFF;}
	.st1{opacity:0.3;}
	.st2{fill:#CFD8DC;}
	.st3{opacity:0.7;fill:#FFFFFF;enable-background:new    ;}
	.st4{opacity:0.2;fill:#C1C4C6;enable-background:new    ;}
	.st5{opacity:0.2;fill:#727575;enable-background:new    ;}
	.st6{opacity:0.3;fill:#FFFFFF;enable-background:new    ;}
	.st7{opacity:0.4;fill:#C2CACC;enable-background:new    ;}
	.st8{fill:#AAB0B2;}
	.st9{opacity:0.2;enable-background:new    ;}
	.st10{opacity:0.2;fill:#FFFFFF;enable-background:new    ;}
	.st11{opacity:0.3;fill:#CFD8DC;enable-background:new    ;}
	.st12{opacity:0.8;fill:#FFFFFF;enable-background:new    ;}
	.st13{fill:#263238;}
	.st14{opacity:0.5;fill:#FFFFFF;enable-background:new    ;}
	.st15{opacity:0.6;fill:#CFD8DC;enable-background:new    ;}
	.st16{opacity:0.5;fill:#CFD8DC;enable-background:new    ;}
	.st17{display:none;}
	.st18{display:inline;opacity:0.2;enable-background:new    ;}
	.st19{display:inline;fill:#263238;}
	.st20{display:inline;fill:#CFD8DC;}
	.st21{display:inline;opacity:0.6;fill:#FFFFFF;enable-background:new    ;}
	.st22{display:inline;fill:#FFFFFF;}
	.st23{display:inline;opacity:0.3;fill:#CFD8DC;enable-background:new    ;}
	.st24{display:inline;opacity:0.2;fill:#FFFFFF;enable-background:new    ;}
</style>
<g id="freepik--404--inject-2">
	<path class="st0" d="M107.7,308.8H21.3v-36.5l86.4-96.1h41.3v98.2h21.4v34.4h-21.4v29.9h-41.3V308.8z M107.7,274.4v-50.3
		l-45.7,50.3H107.7z"/>
	<path class="st0" d="M185.3,258.1c0-30.4,5.8-51.6,17.5-63.8c11.7-12.1,29.5-18.2,53.4-18.2c11.5,0,20.9,1.3,28.3,4
		c6.7,2.3,12.8,5.8,18,10.4c4.4,3.9,8.1,8.4,11,13.4c2.9,5.2,5.1,10.7,6.5,16.4c3.2,12.2,4.8,24.7,4.8,37.2c0,29-5.2,50.2-15.7,63.6
		c-10.5,13.4-28.5,20.2-54.1,20.2c-14.4,0-26-2.1-34.8-6.4c-8.9-4.4-16.4-10.9-21.8-18.9c-4.1-5.9-7.3-13.9-9.6-24.1
		C186.3,280.8,185.2,269.4,185.3,258.1z M232.3,258.2c0,20.4,1.9,34.3,5.7,41.7c3.8,7.4,9.4,11.1,16.7,11.2c4.7,0,9.2-1.7,12.5-4.7
		c3.5-3.2,6.1-8.2,7.8-15c1.7-6.8,2.5-17.5,2.5-31.9c0-21.2-1.9-35.5-5.8-42.8c-3.8-7.3-9.6-11-17.3-11c-7.8,0-13.5,3.7-17,11.2
		C234,224.4,232.2,238.1,232.3,258.2z"/>
	<path class="st0" d="M425.8,308.8h-86.4v-36.5l86.4-96.1h41.3v98.2h21.5v34.4h-21.5v29.9h-41.3V308.8z M425.8,274.4v-50.3
		l-45.6,50.3H425.8z"/>
</g>
<g id="freepik--Planets--inject-2">
	<g class="st1">
		<path class="st2" d="M183.4,120c0,1.4-1.2,2.5-2.7,2.5c-1.5,0-2.7-1.1-2.7-2.5c0-1.4,1.2-2.5,2.7-2.5c0,0,0,0,0,0
			C182.2,117.6,183.4,118.7,183.4,120C183.4,120,183.4,120,183.4,120z"/>
		<ellipse class="st2" cx="1.7" cy="213.8" rx="1.9" ry="1.8"/>
		<ellipse class="st2" cx="311.2" cy="469.2" rx="2.7" ry="2.5"/>
		<ellipse class="st2" cx="375.8" cy="367.7" rx="1.9" ry="1.8"/>
		<path class="st2" d="M500.2,53.6c0,1-0.8,1.8-1.9,1.8c-1,0-1.9-0.8-1.9-1.8c0-1,0.8-1.8,1.9-1.8C499.4,51.8,500.2,52.6,500.2,53.6
			L500.2,53.6z"/>
		<path class="st2" d="M143.3,18.2c0,1-0.8,1.8-1.9,1.8c-1,0-1.9-0.8-1.9-1.8c0-1,0.8-1.8,1.9-1.8C142.5,16.5,143.3,17.2,143.3,18.2
			z"/>
		<ellipse class="st2" cx="292.3" cy="108.5" rx="1.9" ry="1.8"/>
	</g>
	<ellipse class="st2" cx="98.6" cy="81.2" rx="31.1" ry="29.1"/>
	<ellipse class="st3" cx="98.6" cy="81.2" rx="31.1" ry="29.1"/>
	<path class="st4" d="M87.8,59.2c-4.2,0-8.4,0.8-12.3,2.4C64,73.4,64.9,91.9,77.6,102.7c9,7.7,22,9.7,33.2,5.2l0,0
		c11.5-11.9,10.6-30.3-2.1-41.2C103,61.9,95.5,59.2,87.8,59.2L87.8,59.2z"/>
	<path class="st5" d="M84.8,66.9c0,1.5-1.3,2.7-2.8,2.7s-2.8-1.2-2.8-2.7s1.3-2.7,2.8-2.7S84.8,65.4,84.8,66.9z"/>
	<path class="st5" d="M118.2,64.2c0,1.5-1.3,2.7-2.8,2.7s-2.8-1.2-2.8-2.7c0-1.5,1.3-2.7,2.8-2.7S118.2,62.8,118.2,64.2z"/>
	<path class="st5" d="M112.5,83.2c0,2.4-2.1,4.4-4.7,4.4s-4.7-2-4.7-4.4s2.1-4.4,4.7-4.4l0,0C110.4,78.8,112.5,80.8,112.5,83.2z"/>
	<path class="st5" d="M97.7,95.6c0,3.2-2.8,5.8-6.2,5.8c-3.4,0-6.2-2.6-6.2-5.8s2.8-5.8,6.2-5.8S97.7,92.4,97.7,95.6L97.7,95.6z"/>
	<ellipse class="st2" cx="440.6" cy="426.5" rx="27.3" ry="25.6"/>
	<ellipse class="st6" cx="440.6" cy="426.5" rx="27.3" ry="25.6"/>
	<path class="st7" d="M457.8,406.7c-14.4-4.1-29.6,3.6-34,17.1c-3.2,9.9,0.3,20.7,8.9,27.2c2.5,0.7,5.2,1.1,7.8,1.1
		c15.1,0,27.3-11.4,27.3-25.6C467.9,418.9,464.2,411.6,457.8,406.7L457.8,406.7z"/>
	<path class="st8" d="M414.5,434.2c-29.1,12.8-7.4,22.7,33.7,8.9c38-12.8,52.5-28.9,18.5-23.9C468.5,425.9,420.9,443.3,414.5,434.2z
		"/>
</g>
<g id="freepik--Astronaut--inject-2">
	<path class="st9" d="M457.5,176.1c-38.2,24.1-87.6,56-101.2,132.7h-2.9c13.3-75.8,60.9-108.4,99.1-132.7L457.5,176.1z"/>
	<path class="st2" d="M260.1,416c-24.1,0-48-10.2-59.6-26.8c-7.2-10.3-15.5-31.8,9.3-60.6l2.2,1.7c-17.5,20.3-20.8,40.7-9.1,57.5
		c14.2,20.3,47.7,30.6,76.3,23.3c29.3-7.5,47.1-31.3,48.8-65.4c5.9-116.7,72.1-152.7,120.4-178.9c30.1-16.3,51.8-28.1,47-52.9
		c-0.7-3.4-2.1-5.8-4.5-7.3c-6.2-3.8-18.2-1.2-32.2,1.9c-27.4,6-64.9,14.2-87.3-21.4l2.5-1.3c21.3,33.9,56.2,26.3,84.2,20.2
		c14.6-3.2,27.2-5.9,34.4-1.5c3.1,1.9,4.9,4.8,5.7,9c5.1,26.7-18.5,39.5-48.3,55.7c-47.8,25.9-113.2,61.5-119,176.8
		c-1.8,35.4-20.3,60.1-50.9,67.9C273.4,415.2,266.7,416,260.1,416z"/>
	<path class="st10" d="M260.1,416c-24.1,0-48-10.2-59.6-26.8c-7.2-10.3-15.5-31.8,9.3-60.6l2.2,1.7c-17.5,20.3-20.8,40.7-9.1,57.5
		c14.2,20.3,47.7,30.6,76.3,23.3c29.3-7.5,47.1-31.3,48.8-65.4c5.9-116.7,72.1-152.7,120.4-178.9c30.1-16.3,51.8-28.1,47-52.9
		c-0.7-3.4-2.1-5.8-4.5-7.3c-6.2-3.8-18.2-1.2-32.2,1.9c-27.4,6-64.9,14.2-87.3-21.4l2.5-1.3c21.3,33.9,56.2,26.3,84.2,20.2
		c14.6-3.2,27.2-5.9,34.4-1.5c3.1,1.9,4.9,4.8,5.7,9c5.1,26.7-18.5,39.5-48.3,55.7c-47.8,25.9-113.2,61.5-119,176.8
		c-1.8,35.4-20.3,60.1-50.9,67.9C273.4,415.2,266.7,416,260.1,416z"/>
	<path class="st2" d="M342.1,55.4c6.5,0,13,1,19.3,2.8c0,0,15.6,24.9,17.5,30.7c-0.7,5.6-10.8,14.9-10.8,14.9L342.1,55.4z"/>
	<path class="st6" d="M342.1,55.4c6.5,0,13,1,19.3,2.8c0,0,15.6,24.9,17.5,30.7c-0.7,5.6-10.8,14.9-10.8,14.9L342.1,55.4z"/>
	<path class="st2" d="M388.3,176.5c-6-6.9-11.5-14.2-16.4-21.8c-1.2-1.9-2.3-3.9-3.4-5.9c-0.6-1.1-1.2-2.3-1.8-3.4
		c-0.7-1.1-1.3-2.3-1.7-3.6c-1.7-16.8,4.5-29.2-1.4-42.8l-23.4,8.6c0,0,2,24.1,6.5,38.5c2.8,8.9,9.2,16.7,15.3,23.8
		c1.9,2.2,3.8,4.5,5.7,6.8c1.9,2.2,3.8,4.1,5.7,6.2c2.8,3.2,3.7,6.3,1.6,10l-0.4,0.6c-0.6,1,2.2,2.1,3.9,0c2.8-3.4,2.4-3.2,4.9-6.1
		c1.5-1.8,3.2-3.7,4.7-5.3C389.7,180.6,389.8,178.2,388.3,176.5z"/>
	<path class="st3" d="M388.3,176.5c-6-6.9-11.5-14.2-16.4-21.8c-1.2-1.9-2.3-3.9-3.4-5.9c-0.6-1.1-1.2-2.3-1.8-3.4
		c-0.7-1.1-1.3-2.3-1.7-3.6c-1.7-16.8,4.5-29.2-1.4-42.8l-23.4,8.6c0,0,2,24.1,6.5,38.5c2.8,8.9,9.2,16.7,15.3,23.8
		c1.9,2.2,3.8,4.5,5.7,6.8c1.9,2.2,3.8,4.1,5.7,6.2c2.8,3.2,3.7,6.3,1.6,10l-0.4,0.6c-0.6,1,2.2,2.1,3.9,0c2.8-3.4,2.4-3.2,4.9-6.1
		c1.5-1.8,3.2-3.7,4.7-5.3C389.7,180.6,389.8,178.2,388.3,176.5z"/>
	<path class="st11" d="M382.6,169.6c-3.7,3.7-7.8,7.1-12.3,10c0.6,0.6,1.2,1.3,1.8,1.9c4.5-2.8,8.5-6.2,12.1-10L382.6,169.6z"/>
	<path class="st11" d="M388.3,176.5l-0.2-0.2c-1.1,1.2-1.7,2.7-1.8,4.2c-0.1,1.1,0.1,2.1,0.5,3.1l1.3-1.5
		C389.7,180.6,389.7,178.2,388.3,176.5z"/>
	<path class="st2" d="M336.5,71.4c-2.5,3.6-5.6,6.8-9,9.6c-1.9,1.6-4,2.9-6.3,4c-1.2,0.6-2.4,1.1-3.7,1.4l-1,0.3l-0.3,0.1l-0.7,0.2
		c-0.4,0.1-0.8,0.2-1.2,0.2c-1.2,0.1-2.4,0-3.6-0.3c-1.5-0.4-2.9-1-4.2-1.7c-1.1-0.6-2.1-1.2-3.1-1.9c-1.8-1.2-3.5-2.6-5.1-4
		c-3.1-2.8-6-5.8-8.5-9c-1.2-1.5-0.8-3.6,0.7-4.7c1.2-0.8,2.8-0.9,4-0.1h0.1c3.4,2,6.7,4.1,10,6c1.7,0.9,3.3,1.8,4.9,2.6
		c0.7,0.4,1.5,0.7,2.3,1c0.5,0.2,1,0.3,1.5,0.3c0.1,0,0-0.1-0.5-0.1c-0.2,0-0.3,0-0.5,0l-0.3,0.1l0,0l0.5-0.2c0.6-0.3,1.2-0.7,1.8-1
		c1.3-0.8,2.5-1.8,3.5-2.8c2.5-2.4,4.8-5,7-7.7l0,0c2.6-2.7,7.1-3,10-0.5c2.6,2.1,3.1,5.7,1.3,8.4L336.5,71.4z"/>
	<path class="st3" d="M336.5,71.4c-2.5,3.6-5.6,6.8-9,9.6c-1.9,1.6-4,2.9-6.3,4c-1.2,0.6-2.4,1.1-3.7,1.4l-1,0.3l-0.3,0.1l-0.7,0.2
		c-0.4,0.1-0.8,0.2-1.2,0.2c-1.2,0.1-2.4,0-3.6-0.3c-1.5-0.4-2.9-1-4.2-1.7c-1.1-0.6-2.1-1.2-3.1-1.9c-1.8-1.2-3.5-2.6-5.1-4
		c-3.1-2.8-6-5.8-8.5-9c-1.2-1.5-0.8-3.6,0.7-4.7c1.2-0.8,2.8-0.9,4-0.1h0.1c3.4,2,6.7,4.1,10,6c1.7,0.9,3.3,1.8,4.9,2.6
		c0.7,0.4,1.5,0.7,2.3,1c0.5,0.2,1,0.3,1.5,0.3c0.1,0,0-0.1-0.5-0.1c-0.2,0-0.3,0-0.5,0l-0.3,0.1l0,0l0.5-0.2c0.6-0.3,1.2-0.7,1.8-1
		c1.3-0.8,2.5-1.8,3.5-2.8c2.5-2.4,4.8-5,7-7.7l0,0c2.6-2.7,7.1-3,10-0.5c2.6,2.1,3.1,5.7,1.3,8.4L336.5,71.4z"/>
	<path class="st2" d="M284.6,62.6l1.7,2.7c0,0,1.3,3.5,3.8,4.1l6.9-2.1l-0.4-0.5l0,0c-0.9-1.2-0.8-3.7-0.5-5.7
		c0.3-2-0.8-2.1-1.6-1.6c-0.6,0.6-1,1.4-1.2,2.2c-0.3-0.4-0.7-0.9-1.1-1.2l-2.1-2c-0.9-0.8-2.4-0.9-3.3-0.1l-1.7,1.4
		C284.2,60.5,284,61.7,284.6,62.6z"/>
	<path class="st3" d="M284.6,62.6l1.7,2.7c0,0,1.3,3.5,3.8,4.1l6.9-2.1l-0.4-0.5l0,0c-0.9-1.2-0.8-3.7-0.5-5.7
		c0.3-2-0.8-2.1-1.6-1.6c-0.6,0.6-1,1.4-1.2,2.2c-0.3-0.4-0.7-0.9-1.1-1.2l-2.1-2c-0.9-0.8-2.4-0.9-3.3-0.1l-1.7,1.4
		C284.2,60.5,284,61.7,284.6,62.6z"/>
	<path class="st2" d="M349,53.1c-7.7,1.9-15,4.8-21.8,8.6c-2.2,1.3-3.3,3.7-2.8,6c2.7,12.5,9,29.3,15.7,40l31.4-12.2
		c0.2-5.2-7.4-22-15.2-38.2C355,54.5,352.3,52.3,349,53.1z"/>
	<path class="st12" d="M349,53.1c-7.7,1.9-15,4.8-21.8,8.6c-2.2,1.3-3.3,3.7-2.8,6c2.7,12.5,9,29.3,15.7,40l31.4-12.2
		c0.2-5.2-7.4-22-15.2-38.2C355,54.5,352.3,52.3,349,53.1z"/>
	<path class="st11" d="M361.3,67.7l-6.2-2c1.4,3.4,6.4,7.7,9.9,10.3C363.8,73.3,362.6,70.5,361.3,67.7z"/>
	<path class="st2" d="M347,39.9c-2.6-4.6-8.2-7-14.9-6.4c-5.7,0.5-10.7,5.9-10.1,8.8c0.6,2.9,5.4,4.2,6.3,5.2l-3.9,2.7
		c-1.9,1.3-2.3,3.8-1,5.6c0,0,0.1,0.1,0.1,0.1c1.7,2,3.8,4,5.1,5.5c10.9-0.3,18.9-4.1,21.8-7.9C349.3,48.7,349.5,44.5,347,39.9z"/>
	<path class="st12" d="M347,39.9c-2.6-4.6-8.2-7-14.9-6.4c-5.7,0.5-10.7,5.9-10.1,8.8c0.6,2.9,5.4,4.2,6.3,5.2l-3.9,2.7
		c-1.9,1.3-2.3,3.8-1,5.6c0,0,0.1,0.1,0.1,0.1c1.7,2,3.8,4,5.1,5.5c10.9-0.3,18.9-4.1,21.8-7.9C349.3,48.7,349.5,44.5,347,39.9z"/>
	<path class="st13" d="M341.6,42.8c2.2,5.2-0.6,11-6.1,13c-5.5,2-11.8-0.5-13.9-5.7c-2.2-5.2,0.6-11,6.1-13
		C333.2,35,339.5,37.6,341.6,42.8z"/>
	<path class="st2" d="M433.8,162.5c-0.2-4.4-0.4-4-0.5-7.7c-0.1-2.3-0.1-4.8-0.1-6.9c0-2.1-1.6-3.9-3.8-4.4
		c-1.9-0.4-3.8-0.7-5.7-1.1c-2.5-0.5-4.9-1-7.3-1.7c-1.9-0.5-3.7-1.1-5.6-1.7s-3.9-1.3-5.8-2.2c-2.2-0.9-4.5-1.8-6.6-2.8
		c-2.5-1.1-4.9-2.2-7.3-3.4c-9.3-14.5-9.5-24-19.6-35.2l-21.5,9.1c0,0,15.8,26.3,26.6,37.4c6.2,6.4,15.9,9.3,24.6,11.4
		c6.3,1.5,12.6,2.7,19,3.8c2.5,0.4,5.2,0.6,7.3,2c1.6,1.1,2.7,2.8,3,4.6c0.1,0.4,0.2,0.7,0.3,1.1C431,166,433.9,165.2,433.8,162.5z"
		/>
	<path class="st12" d="M433.8,162.5c-0.2-4.4-0.4-4-0.5-7.7c-0.1-2.3-0.1-4.8-0.1-6.9c0-2.1-1.6-3.9-3.8-4.4
		c-1.9-0.4-3.8-0.7-5.7-1.1c-2.5-0.5-4.9-1-7.3-1.7c-1.9-0.5-3.7-1.1-5.6-1.7s-3.9-1.3-5.8-2.2c-2.2-0.9-4.5-1.8-6.6-2.8
		c-2.5-1.1-4.9-2.2-7.3-3.4c-9.3-14.5-9.5-24-19.6-35.2l-21.5,9.1c0,0,15.8,26.3,26.6,37.4c6.2,6.4,15.9,9.3,24.6,11.4
		c6.3,1.5,12.6,2.7,19,3.8c2.5,0.4,5.2,0.6,7.3,2c1.6,1.1,2.7,2.8,3,4.6c0.1,0.4,0.2,0.7,0.3,1.1C431,166,433.9,165.2,433.8,162.5z"
		/>
	<path class="st11" d="M422.9,142.3c-0.9-0.2-1.7-0.3-2.6-0.5c0.1,4.6-2.2,12.5-3.1,14.9l2.7,0.5
		C421.7,152.4,422.7,147.4,422.9,142.3z"/>
	<path class="st11" d="M433.2,147.9c0-2.1-1.6-3.9-3.8-4.4l-1.4-0.3c0.2,1.5,1.1,2.9,2.3,3.9c0.8,0.7,1.8,1.2,2.8,1.5
		C433.2,148.5,433.2,148.2,433.2,147.9z"/>
	<path class="st0" d="M339.6,42.9c0.6,2-1.8,4.1-3.8,2.4c-1.8-1.8-3.7-3.4-5.8-4.9c-2-1.2,0.7-3.2,3.8-2.4
		C336.5,38.6,338.7,40.4,339.6,42.9z"/>
	<path class="st2" d="M339.8,107.1c-1,0.3,0.8,1.9,0.8,1.9s19.9-6.4,31.9-12.9c0.1-0.8-0.3-1.6-1-2.1
		C361.3,98.9,350.6,103.3,339.8,107.1z"/>
	<path class="st14" d="M339.8,107.1c-1,0.3,0.8,1.9,0.8,1.9s19.9-6.4,31.9-12.9c0.1-0.8-0.3-1.6-1-2.1
		C361.3,98.9,350.6,103.3,339.8,107.1z"/>
	<path class="st2" d="M354.4,52.2c3.9,1.9,7.6,3.8,11.4,6c1.8,1.1,3.6,2.2,5.5,3.4c1.8,1.2,3.6,2.4,5.4,3.8l0.7,0.5l0.8,0.7
		c0.5,0.4,1,0.9,1.4,1.3c0.5,0.5,0.8,0.9,1.2,1.3c0.4,0.4,0.8,0.9,1.1,1.3c1.3,1.7,2.5,3.5,3.7,5.3c2.2,3.6,4.1,7.3,5.7,11.1
		c0.7,1.7-0.2,3.7-2.1,4.3c-1.4,0.5-2.9,0.1-3.9-0.8l-0.1-0.1c-2.8-2.8-5.6-5.8-8.3-8.6s-5.6-5.6-7.9-6.8c-3.2-1.9-6.8-3.7-10.4-5.6
		l-10.7-5.6l0,0c-3.5-1.7-4.8-5.7-3-9c1.8-3.2,6.1-4.5,9.6-2.8L354.4,52.2z"/>
	<path class="st12" d="M354.4,52.2c3.9,1.9,7.6,3.8,11.4,6c1.8,1.1,3.6,2.2,5.5,3.4c1.8,1.2,3.6,2.4,5.4,3.8l0.7,0.5l0.8,0.7
		c0.5,0.4,1,0.9,1.4,1.3c0.5,0.5,0.8,0.9,1.2,1.3c0.4,0.4,0.8,0.9,1.1,1.3c1.3,1.7,2.5,3.5,3.7,5.3c2.2,3.6,4.1,7.3,5.7,11.1
		c0.7,1.7-0.2,3.7-2.1,4.3c-1.4,0.5-2.9,0.1-3.9-0.8l-0.1-0.1c-2.8-2.8-5.6-5.8-8.3-8.6s-5.6-5.6-7.9-6.8c-3.2-1.9-6.8-3.7-10.4-5.6
		l-10.7-5.6l0,0c-3.5-1.7-4.8-5.7-3-9c1.8-3.2,6.1-4.5,9.6-2.8L354.4,52.2z"/>
	<path class="st2" d="M394.5,93.6l-1.2-2.8c0,0-0.7-3.6-3.1-4.6l-7.1,1l0.2,0.6l0,0c0.7,1.3,0.2,3.8-0.5,5.7
		c-0.6,1.9,0.4,2.2,1.3,1.8c0.5-0.2,1-1.1,1.5-2c0.3,0.5,0.6,0.9,0.9,1.3l1.7,2.2c0.8,1,2.2,1.2,3.3,0.6l1.9-1.2
		C394.6,95.7,395,94.6,394.5,93.6z"/>
	<path class="st12" d="M394.5,93.6l-1.2-2.8c0,0-0.7-3.6-3.1-4.6l-7.1,1l0.2,0.6l0,0c0.7,1.3,0.2,3.8-0.5,5.7
		c-0.6,1.9,0.4,2.2,1.3,1.8c0.5-0.2,1-1.1,1.5-2c0.3,0.5,0.6,0.9,0.9,1.3l1.7,2.2c0.8,1,2.2,1.2,3.3,0.6l1.9-1.2
		C394.6,95.7,395,94.6,394.5,93.6z"/>
	<path class="st11" d="M348.4,67.5l-1.7,0.1l-10.6,24c0.6,0,1.2,0,1.7-0.1c0,0,13.9-4.8,18-6.6C353,79.4,348.4,67.5,348.4,67.5z"/>
	<path class="st0" d="M329,73.8c1.3,6.3,3.7,12.3,7.1,17.9c5.2-1.7,13.9-4.8,18.1-6.6c-2.8-5.7-5.3-11.5-7.5-17.4
		C342.2,67.9,332.5,71.4,329,73.8z"/>
	<path class="st11" d="M339.6,79c-0.6,1.8-2.6,2.8-4.6,2.3c-1.9-0.5-3-2.5-2.5-4.3c0.6-1.8,2.6-2.8,4.6-2.3c0,0,0,0,0,0
		C339,75.2,340.1,77.1,339.6,79z"/>
	<path class="st15" d="M342.3,74.4c-0.2,0.6-0.8,1-1.4,0.8c-0.6-0.1-1.1-0.7-0.9-1.4c0.2-0.6,0.8-1,1.4-0.8c0,0,0.1,0,0.1,0
		C342.1,73.2,342.4,73.8,342.3,74.4z"/>
	<path class="st15" d="M345.4,73.2c-0.1,0.6-0.8,1-1.4,0.9c-0.7-0.1-1.1-0.7-0.9-1.3c0-0.1,0-0.1,0.1-0.2c0.2-0.6,0.9-0.9,1.5-0.7
		c0,0,0,0,0,0C345.3,72,345.6,72.6,345.4,73.2z"/>
	<polygon class="st16" points="349.9,83.6 336.8,88.4 336,86 349.1,81.2 	"/>
</g>
<g id="freepik--Rocket--inject-2" class="st17">
	<path class="st18" d="M277.5,268.3c0,7.7-0.8,15.5-2.4,23.1c-1.7,6.8-4.3,11.8-7.8,15c-3.3,3.1-7.8,4.8-12.5,4.7
		c-7.3,0-12.9-3.7-16.7-11.2c-0.7-1.3-1.2-2.7-1.7-4.1c-8.1,6.5-15.7,13.6-22.6,21.3l-7.5,8.3c4.1,3.8,8.7,7.1,13.9,9.6
		c8.8,4.3,20.4,6.4,34.8,6.4c2.5,0,5-0.1,7.3-0.2c8.7-12,15.9-25,21.4-38.5l21.1-51.5L277.5,268.3z"/>
	<path class="st19" d="M87.4,338.5l24.8,23.3l69.6-61.4C157.9,291.8,111.2,316.2,87.4,338.5z"/>
	<path class="st19" d="M174.1,419.6c-7.9-7.4-24.8-23.3-24.8-23.3l65.5-65.1C223.9,353.6,197.9,397.3,174.1,419.6z"/>
	<path class="st20" d="M269.1,273l27.1-48.9L244,249.5c-16.8,8.1-32.3,18.4-46,30.6l-89.1,78.5l43.8,41l83.9-83.4
		C249.4,303.2,260.4,288.7,269.1,273z"/>
	<path class="st21" d="M269.1,273l27.1-48.9L244,249.5c-16.8,8.1-32.3,18.4-46,30.6l-89.1,78.5l43.8,41l83.9-83.4
		C249.4,303.2,260.4,288.7,269.1,273z"/>
	<ellipse class="st22" cx="213.5" cy="301.5" rx="18.3" ry="17.1"/>
	<ellipse class="st20" cx="213.5" cy="301.5" rx="11.8" ry="11"/>
	<polygon class="st23" points="167.4,384.8 124.6,344.7 159.7,313.7 200.5,351.9 	"/>
	<path class="st20" d="M97.1,375.2c-32.1,2.4-42.7,21.7-46.3,47.2c-1.8,13-2.7,26.2-14.4,33.9c-1.8,1.1-2.3,3.4-1,5.1
		c0.8,1,2,1.6,3.4,1.6c43.1-1.3,63.2-21,65.7-29.2c-0.7,4.3-1.8,8.5-3.5,12.6c-0.8,1.9,0.2,4,2.2,4.8c1.2,0.4,2.5,0.3,3.5-0.3
		c12.1-7.1,27.2-20.1,28.2-41.3C125.9,397.8,97.1,375.2,97.1,375.2z"/>
	<path class="st24" d="M97.1,375.2c-32.1,2.4-42.7,21.7-46.3,47.2c-1.8,13-2.7,26.2-14.4,33.9c-1.8,1.1-2.3,3.4-1,5.1
		c0.8,1,2,1.6,3.4,1.6c43.1-1.3,63.2-21,65.7-29.2c-0.7,4.3-1.8,8.5-3.5,12.6c-0.8,1.9,0.2,4,2.2,4.8c1.2,0.4,2.5,0.3,3.5-0.3
		c12.1-7.1,27.2-20.1,28.2-41.3C125.9,397.8,97.1,375.2,97.1,375.2z"/>
	<polygon class="st20" points="139.8,418.6 88.4,370.5 115.8,365 145.7,393 	"/>
</g>
</svg>
